# AST/ASF file generated using VICON BodyLanguage
# -----------------------------------------------
:version 1.10
:name VICON
:units
  mass 1.0
  length 0.45
  angle deg
:documentation
   .ast/.asf automatically generated from VICON data using
   VICON BodyBuilder and BodyLanguage model FoxedUp or BRILLIANT.MOD
:root
   order TX TY TZ RX RY RZ
   axis XYZ
   position 0 0 0  
   orientation 0 0 0 
:bonedata
  begin
     id 1 
     name lhipjoint
     direction 0.643822 -0.745931 0.170529 
     length 2.62041 
     axis 0 0 0  XYZ
  end
  begin
     id 2 
     name lfemur
     direction 0.34202 -0.939693 0  
     length 7.92179  
     axis 0 0 20  XYZ
    dof rx ry rz
    limits (-160.0 20.0)
           (-70.0 70.0)
           (-60.0 70.0)
  end
  begin
     id 3 
     name ltibia
     direction 0.34202 -0.939693 0   
     length 8.16326   
     axis 0 0 20   XYZ
    dof rx
    limits (-10.0 170.0)
  end
  begin
     id 4 
     name lfoot
     direction 0.0837341 -0.230058 0.969568   
     length 1.94455   
     axis -90 7.62852e-016 20   XYZ
    dof rx rz
    limits (-45.0 90.0)
           (-70.0 20.0)
  end
  begin
     id 5 
     name ltoes
     direction 1.5356e-011 -4.21695e-011 1   
     length 0.978804   
     axis -90 7.62852e-016 20   XYZ
    dof rx
    limits (-90.0 20.0)
  end
  begin
     id 6 
     name rhipjoint
     direction -0.656883 -0.73503 0.168037   
     length 2.65927  
     axis 0 0 0  XYZ 
  end
  begin
     id 7 
     name rfemur
     direction -0.34202 -0.939693 0   
     length 7.58746   
     axis 0 0 -20   XYZ
    dof rx ry rz
    limits (-160.0 20.0)
           (-70.0 70.0)
           (-70.0 60.0)
  end
  begin
     id 8 
     name rtibia
     direction -0.342117 -0.939657 0   
     length 8.27303   
     axis 0 0 -20   XYZ
    dof rx
    limits (-10.0 170.0)
 end
 begin
     id 9 
     name rfoot
     direction -0.0685862 -0.188439 0.979687   
     length 2.13088  
     axis -90 -7.62852e-016 -20   XYZ
    dof rx rz
    limits (-45.0 90.0)
           (-20.0 70.0)
  end
  begin
     id 10 
     name rtoes
     direction -1.53538e-011 -4.21514e-011 1   
     length 1.07326   
     axis -90 -7.62852e-016 -20   XYZ
    dof rx
    limits (-90.0 20.0)
  end
  begin
     id 11 
     name lowerback
     direction -0.0358974 0.997216 0.065354   
     length 1.87174   
     axis 0 0 0   XYZ
    dof rx ry rz
    limits (-20.0 45.0)
           (-30.0 30.0)
           (-30.0 30.0)
  end
  begin
     id 12 
     name upperback
     direction 0.0202028 0.998565 0.0495864   
     length 1.8684   
     axis 0 0 0   XYZ
    dof rx ry rz
    limits (-20.0 45.0)
           (-30.0 30.0)
           (-30.0 30.0)
  end
  begin
     id 13 
     name thorax
     direction 0.0366367 0.999163 0.0182199   
     length 1.87747   
     axis 0 0 0   XYZ
    dof rx ry rz
    limits (-20.0 45.0)
           (-30.0 30.0)
           (-30.0 30.0)
  end
  begin
     id 14 
     name lowerneck
     direction 0.0284381 0.999578 -0.00598196   
     length 1.84583   
     axis 0 0 0   XYZ
    dof rx ry rz
    limits (-20.0 45.0)
           (-30.0 30.0)
           (-30.0 30.0)
  end
  begin
     id 15 
     name upperneck
     direction -0.0888142 0.993333 -0.0734973   
     length 1.84467   
     axis 0 0 0   XYZ
    dof rx ry rz
    limits (-20.0 45.0)
           (-30.0 30.0)
           (-30.0 30.0)
  end
  begin
     id 16
     name head
     direction -0.0296474 0.999102 -0.0302696  
     length 1.86566  
     axis 0 0 0   XYZ
    dof rx ry rz
    limits (-20.0 45.0)
           (-30.0 30.0)
           (-30.0 30.0)
  end
  begin
     id 17 
     name lclavicle
     direction 0.933925 0.35714 -0.0153523  
     length 3.93442  
     axis 0 0 0   XYZ
    dof ry rz
    limits (-20.0 10.0)
           (0.0 20.0)
  end
  begin
     id 18 
     name lhumerus
     direction 1 -4.48967e-011 2.12044e-027   
     length 5.78174   
     axis 180 -30 -90   XYZ
    dof rx ry rz
    limits (-60.0 90.0)
           (-90.0 90.0)
           (-90.0 90.0)
  end
  begin
     id 19
     name lradius
     direction 1 -4.48972e-011 6.45701e-027   
     length 3.53992   
     axis 180 -30 -90   XYZ
    dof rx
    limits (-10.0 170.0)
  end
  begin
     id 20
     name lwrist
     direction 1 -4.48981e-011 1.70244e-026   
     length 1.76996   
     axis -1.1226e-014 90 90   XYZ
    dof ry
    limits (-180.0 0.0)
 end
  begin
     id 21 
     name lhand
     direction 1 -4.4879e-011 3.40615e-026   
     length 0.550243   
     axis -2.17265e-014 90 90   XYZ
    dof rx rz
    limits (-90.0 90.0)
           (-45.0 45.0)
  end
  begin
     id 22 
     name lfingers
     direction 1 -4.49029e-011 6.80911e-026   
     length 0.44362   
     axis -4.34526e-014 90 90   XYZ
    dof rx
    limits (0.0 90.0)
  end
  begin
     id 23
     name lthumb
     direction 0.707107 -6.34923e-011 0.707107   
     length 0.636952   
     axis -90 45 -1.62303e-014   XYZ
    dof rx rz
    limits (-45.0 45.0)
           (-45.0 45.0)
  end
  begin
     id 24 
     name rclavicle
     direction -0.950832 0.305106 0.0531883   
     length 3.96125  
     axis 0 0 0   XYZ 
    dof ry rz
    limits (-10.0 20.0)
           (-20.0 0.0)
  end
  begin
     id 25 
     name rhumerus
     direction -1 -4.48961e-011 -6.07392e-030  
     length 5.79352   
     axis 180 30 90   XYZ
    dof rx ry rz
    limits (-90.0 60.0)
           (-90.0 90.0)
           (-90.0 90.0)
  end
  begin
     id 26 
     name rradius
     direction -1 -4.48964e-011 5.97548e-027   
     length 3.37081   
     axis 180 30 90   XYZ
    dof rx
    limits (-10.0 170.0)
  end
  begin
     id 27 
     name rwrist
     direction -1 -4.49021e-011 1.7023e-026   
     length 1.68541   
     axis -1.1226e-014 -90 -90   XYZ
    dof ry
    limits (-180.0 0.0)
  end
  begin
     id 28
     name rhand
     direction -1 -4.48867e-011 3.40563e-026   
     length 0.679827   
     axis -2.17265e-014 -90 -90   XYZ
    dof rx rz
    limits (-90.0 90.0)
           (-45.0 45.0)
  end
  begin
     id 29
     name rfingers
     direction -1 -4.49024e-011 6.80917e-026   
     length 0.548094   
     axis -4.34526e-014 -90 -90   XYZ
    dof rx
    limits (0.0 90.0)
  end
  begin
     id 30
     name rthumb
     direction -0.707107 -6.3488e-011 0.707107   
     length 0.786956   
     axis -90 -45 1.62303e-014   XYZ
    dof rx rz
    limits (-45.0 45.0)
           (-45.0 45.0)
  end
:hierarchy
  begin
    root lhipjoint rhipjoint lowerback
    lhipjoint lfemur
    lfemur ltibia
    ltibia lfoot
    lfoot ltoes
    rhipjoint rfemur
    rfemur rtibia
    rtibia rfoot
    rfoot rtoes
    lowerback upperback
    upperback thorax
    thorax lowerneck lclavicle rclavicle
    lowerneck upperneck
    upperneck head
    lclavicle lhumerus
    lhumerus lradius
    lradius lwrist
    lwrist lhand lthumb
    lhand lfingers
    rclavicle rhumerus
    rhumerus rradius
    rradius rwrist
    rwrist rhand rthumb
    rhand rfingers
  end

#!OML:ASF H:\Terrain\Patient Classification 1\PaulMetrics\Match1Take2\PaulMetrics.ASF
:FULLY-SPECIFIED
:DEGREES
116
root 12.9073 17.845 -23.6615 -163.674 22.6802 185.019
lowerback -9.30474 -0.699949 -5.13124
upperback -6.73554 0.0210006 1.30752
thorax -1.79161 0.466292 4.2378
lowerneck -1.03165 9.06866 7.07923
upperneck 6.72434 13.3647 -12.1385
head 3.46034 6.63976 -4.2355
rclavicle 3.83654e-014 -3.97569e-015
rhumerus -56.3199 12.0388 -89.6676
rradius 48.384
rwrist -10.1837
rhand -10.8224 -31.8578
rfingers 7.12502
rthumb 15.1915 -61.2802
lclavicle 3.83654e-014 -3.97569e-015
lhumerus -48.7069 -7.52698 83.321
lradius 47.2428
lwrist 3.32088
lhand -16.6022 -8.00995
lfingers 7.12502
lthumb 9.61922 21.7504
rfemur -26.1614 -7.21602 19.9741
rtibia 63.0315
rfoot 7.9936 0.585622
rtoes -14.6935
lfemur -39.308 7.98408 -31.5946
ltibia 32.9098
lfoot -17.6748 15.5741
ltoes -3.30925
117
root 12.9269 17.857 -23.767 -163.8 21.8254 184.868
lowerback -9.2786 -0.783495 -5.15945
upperback -6.72546 -0.0863706 1.33359
thorax -1.78349 0.414812 4.27276
lowerneck -1.37982 9.08625 7.20999
upperneck 7.36074 13.4887 -12.2804
head 3.73882 6.68405 -4.2575
rclavicle -1.63003e-014 1.59028e-014
rhumerus -56.4066 12.1538 -89.7227
rradius 47.8173
rwrist -10.0667
rhand -10.6482 -31.7014
rfingers 7.12502
rthumb 15.3594 -61.111
lclavicle -1.63003e-014 1.59028e-014
lhumerus -48.6828 -7.71943 83.7118
lradius 48.5651
lwrist 3.90793
lhand -17.7898 -7.92414
lfingers 7.12502
lthumb 8.47315 21.8859
rfemur -27.1794 -6.92536 19.6656
rtibia 64.1213
rfoot 6.69856 -0.2017
rtoes -21.0727
lfemur -38.7359 7.46428 -31.6475
ltibia 32.8631
lfoot -17.5306 15.4916
ltoes -4.99101
118
root 12.9416 17.8732 -23.8688 -163.855 20.8778 184.471
lowerback -9.20421 -1.01963 -5.53972
upperback -6.83361 -0.362503 1.37988
thorax -1.90791 0.304574 4.51498
lowerneck -1.44004 9.35505 7.13189
upperneck 7.72066 13.9085 -12.1391
head 3.88362 6.88971 -4.16114
rclavicle 5.05907e-014 1.03368e-014
rhumerus -56.4875 12.5574 -89.8622
rradius 47.1478
rwrist -9.74892
rhand -10.2938 -31.8887
rfingers 7.12502
rthumb 15.7007 -61.2717
lclavicle 5.05907e-014 1.03368e-014
lhumerus -48.9162 -7.74319 84.1267
lradius 50.0922
lwrist 4.56316
lhand -18.5576 -7.61708
lfingers 7.12502
lthumb 7.73214 22.2216
rfemur -28.3221 -6.77295 19.0866
rtibia 65.1012
rfoot 5.69466 -1.70307
rtoes -21.619
lfemur -38.2659 6.75173 -31.9021
ltibia 32.7045
lfoot -17.607 15.1628
ltoes -4.72482
119
root 12.9539 17.8812 -23.9583 -163.836 19.8768 184.358
lowerback -8.99529 -1.13105 -5.56385
upperback -6.95429 -0.506926 1.4386
thorax -2.1318 0.251284 4.57931
lowerneck -1.24852 9.6046 6.80332
upperneck 7.75102 14.255 -11.821
head 3.84932 7.07188 -4.00055
rclavicle -4.03036e-014 2.38542e-015
rhumerus -56.5805 12.9284 -90.0206
rradius 46.4148
rwrist -9.58865
rhand -10.1027 -32.1742
rfingers 7.12502
rthumb 15.8847 -61.5427
lclavicle -4.03036e-014 2.38542e-015
lhumerus -48.9004 -8.08259 84.6231
lradius 51.3455
lwrist 5.1838
lhand -19.0191 -7.43108
lfingers 7.12502
lthumb 7.28673 22.4235
rfemur -29.4324 -6.45274 18.8025
rtibia 65.9379
rfoot 5.52199 -3.48865
rtoes -14.8086
lfemur -37.8146 6.08814 -31.8243
ltibia 32.4382
lfoot -17.7134 14.6493
ltoes -3.47865
120
root 12.9738 17.8858 -24.0482 -164.017 19.0261 184.255
lowerback -8.75044 -1.18079 -5.65527
upperback -6.93237 -0.586245 1.47069
thorax -2.23361 0.215931 4.65982
lowerneck -1.41523 9.77867 6.47604
upperneck 7.95924 14.497 -11.5046
head 3.9165 7.18423 -3.82557
rclavicle 5.72997e-014 3.18055e-015
rhumerus -56.6725 13.2013 -90.1457
rradius 45.9069
rwrist -9.49641
rhand -9.60333 -32.1325
rfingers 7.12502
rthumb 16.3656 -61.4621
lclavicle 5.72997e-014 3.18055e-015
lhumerus -48.4617 -8.56964 84.9402
lradius 52.2953
lwrist 5.88886
lhand -19.4807 -7.76352
lfingers 7.12502
lthumb 6.84112 22.1059
rfemur -30.3609 -5.85483 18.4825
rtibia 66.6052
rfoot 5.40896 -4.87445
rtoes -6.46994
lfemur -37.1776 5.56621 -31.7006
ltibia 32.2281
lfoot -17.9536 14.0395
ltoes -1.6487
121
root 12.9942 17.8906 -24.1469 -164.209 18.2411 184.015
lowerback -8.6725 -1.2884 -5.90096
upperback -6.82288 -0.730174 1.43427
thorax -2.14348 0.140641 4.75111
lowerneck -0.57338 9.95322 7.75379
upperneck 6.97367 14.804 -12.9882
head 3.71435 7.38362 -4.50267
rclavicle -1.80646e-014 -3.18055e-015
rhumerus -56.5832 13.423 -90.3155
rradius 45.3721
rwrist -9.30943
rhand -9.38028 -31.3741
rfingers 7.12502
rthumb 16.5804 -60.6858
lclavicle -1.80646e-014 -3.18055e-015
lhumerus -48.0178 -8.75439 84.9797
lradius 53.5217
lwrist 6.35341
lhand -19.4866 -7.75319
lfingers 7.12502
lthumb 6.8354 22.1165
rfemur -31.271 -5.21559 17.9821
rtibia 67.1089
rfoot 4.12913 -6.17442
rtoes -3.9912
lfemur -36.5725 5.04602 -31.7542
ltibia 32.119
lfoot -18.2592 13.4624
ltoes -0.228278
122
root 13.0101 17.8915 -24.2411 -164.15 17.2341 184.094
lowerback -8.6871 -1.43228 -5.78303
upperback -6.77908 -0.927188 1.50538
thorax -2.06408 0.0354885 4.74466
lowerneck -1.37005 10.2022 7.44241
upperneck 7.7147 15.132 -12.3695
head 4.03349 7.50484 -4.18245
rclavicle -5.63306e-014 3.97569e-015
rhumerus -56.4732 13.7231 -90.509
rradius 44.6955
rwrist -9.11382
rhand -9.38182 -30.925
rfingers 7.12502
rthumb 16.5789 -60.2369
lclavicle -5.63306e-014 3.97569e-015
lhumerus -47.8103 -8.92663 85.1717
lradius 54.914
lwrist 6.70915
lhand -19.5762 -7.53952
lfingers 7.12502
lthumb 6.74895 22.3329
rfemur -32.2052 -4.58551 17.8825
rtibia 67.4272
rfoot 2.64922 -7.51983
rtoes -5.47792
lfemur -36.19 4.54746 -31.5407
ltibia 32.0327
lfoot -18.3028 12.977
ltoes -0.00514816
123
root 13.0235 17.8941 -24.3347 -164.143 16.1165 184.104
lowerback -8.65501 -1.55628 -5.67049
upperback -6.79568 -1.09325 1.59327
thorax -2.07779 -0.0455482 4.76139
lowerneck -1.87133 10.3176 6.95728
upperneck 8.32855 15.3041 -11.7969
head 4.23825 7.56556 -3.88301
rclavicle -1.26974e-014 1.03368e-014
rhumerus -56.6026 13.7886 -90.4564
rradius 44.2531
rwrist -8.85074
rhand -9.32355 -30.996
rfingers 7.12502
rthumb 16.635 -60.3031
lclavicle -1.26974e-014 1.03368e-014
lhumerus -47.74 -9.35287 85.6237
lradius 56.197
lwrist 7.11901
lhand -20.1622 -7.51684
lfingers 7.12502
lthumb 6.18325 22.3729
rfemur -32.968 -4.02017 17.6888
rtibia 67.5521
rfoot 1.88846 -8.55755
rtoes -6.43326
lfemur -35.7452 4.06471 -31.4214
ltibia 31.9554
lfoot -18.2534 12.4721
ltoes -0.440732
124
root 13.0374 17.8995 -24.4254 -164.217 14.9914 183.96
lowerback -8.51291 -1.59766 -5.67095
upperback -6.83466 -1.14895 1.62237
thorax -2.18934 -0.0646718 4.78985
lowerneck -2.22069 10.3396 6.4556
upperneck 8.80843 15.3679 -11.3638
head 4.37592 7.58096 -3.64383
rclavicle -3.55825e-014 -1.55052e-014
rhumerus -56.9458 13.7109 -90.2849
rradius 44.1699
rwrist -8.84716
rhand -9.30393 -31.0891
rfingers 7.12502
rthumb 16.6539 -60.3947
lclavicle -3.55825e-014 -1.55052e-014
lhumerus -47.7173 -9.8483 86.162
lradius 57.5415
lwrist 7.26588
lhand -20.4655 -7.50656
lfingers 7.12502
lthumb 5.89038 22.3916
rfemur -33.701 -3.49765 17.3056
rtibia 67.5282
rfoot 1.21889 -9.39782
rtoes -7.66814
lfemur -35.2503 3.61819 -31.464
ltibia 31.8971
lfoot -18.2503 11.8099
ltoes -1.00907
125
root 13.0549 17.9056 -24.5156 -164.108 13.719 184.127
lowerback -8.5398 -1.64865 -5.41267
upperback -6.82689 -1.22146 1.75883
thorax -2.15751 -0.104905 4.78107
lowerneck -2.43864 10.382 5.8629
upperneck 8.95871 15.4242 -10.96
head 4.3865 7.59833 -3.41696
rclavicle -4.56211e-014 -1.19271e-014
rhumerus -57.2068 13.8127 -90.1775
rradius 44.1915
rwrist -9.0228
rhand -9.20919 -31.1392
rfingers 7.12502
rthumb 16.7451 -60.4371
lclavicle -4.56211e-014 -1.19271e-014
lhumerus -47.5514 -10.366 86.7216
lradius 58.8191
lwrist 7.36764
lhand -20.3326 -7.65749
lfingers 7.12502
lthumb 6.01869 22.237
rfemur -34.5062 -2.93226 17.2839
rtibia 67.3516
rfoot 0.632385 -10.0077
rtoes -7.4516
lfemur -34.8947 3.11901 -31.1413
ltibia 31.8452
lfoot -18.3314 11.0483
ltoes -0.674372
126
root 13.0721 17.911 -24.6106 -164.046 12.4869 184.267
lowerback -8.67549 -1.69965 -5.19151
upperback -6.72831 -1.29476 1.87346
thorax -1.97081 -0.155588 4.76823
lowerneck -2.68758 10.4347 5.43776
upperneck 9.00194 15.497 -10.76
head 4.39964 7.6215 -3.27436
rclavicle -4.82053e-015 2.3059e-014
rhumerus -57.2611 13.8062 -90.0461
rradius 44.0116
rwrist -9.06252
rhand -9.18232 -31.4763
rfingers 7.12502
rthumb 16.7709 -60.7719
lclavicle -4.82053e-015 2.3059e-014
lhumerus -47.28 -11.0184 87.2535
lradius 60.056
lwrist 7.57782
lhand -20.1109 -7.84887
lfingers 7.12502
lthumb 6.23279 22.0394
rfemur -35.1704 -2.38412 17.1762
rtibia 67.0601
rfoot 0.332368 -10.2194
rtoes -7.4965
lfemur -34.4929 2.51654 -30.8138
ltibia 31.8137
lfoot -18.4659 10.5061
ltoes 0.168841
